#!OML:ASF H:\LiuWeirdWalks\Patient Classification 1\Patient 1\Session 1\male.ASF
:FULLY-SPECIFIED
:DEGREES
1672
root 1.8354 18.0062 23.204 5.56689 8.1366 -7.05525
lowerback 2.48893 1.82376 2.55281
upperback -0.831909 2.59118 3.04461
thorax -2.27893 1.28189 1.58347
lowerneck -20.9288 2.01406 5.90205
upperneck 22.9036 2.9226 -7.4819
head 11.082 0.91345 -3.26923
rclavicle -9.72802e-015 4.85035e-014
rhumerus -32.7897 0.785815 -82.82
rradius 37.0299
rwrist -8.8544
rhand -16.5761 -3.36754
rfingers 7.12502
rthumb 9.64431 -33.1268
lclavicle -9.72802e-015 4.85035e-014
lhumerus -46.9476 11.2859 75.6334
lradius 38.7015
lwrist 12.3789
lhand -12.1442 -2.66185
lfingers 7.12502
lthumb 13.9181 26.8524
rfemur 16.9048 -3.03743 29.4948
rtibia 8.75953
rfoot -0.74605 -12.8346
rtoes -22.2121
lfemur -28.89 -3.38155 -14.8541
ltibia 30.9435
lfoot -4.51133 5.26743
ltoes -4.299
1673
root 1.85147 18.0096 23.2492 5.63171 8.17282 -7.01151
lowerback 2.49632 1.96355 2.76668
upperback -0.885977 2.78466 2.92847
thorax -2.3248 1.37372 1.33515
lowerneck -20.7417 1.78704 5.67629
upperneck 22.8587 2.63349 -7.29503
head 10.9998 0.789189 -3.2044
rclavicle -6.62201e-015 -1.67973e-014
rhumerus -32.9925 0.296411 -82.6622
rradius 37.1486
rwrist -8.88386
rhand -16.5765 -3.3636
rfingers 7.12502
rthumb 9.64399 -33.1228
lclavicle -6.62201e-015 -1.67973e-014
lhumerus -46.8424 10.6605 75.905
lradius 38.8241
lwrist 12.4234
lhand -12.1644 -2.76015
lfingers 7.12502
lthumb 13.8986 26.7554
rfemur 16.7055 -3.07052 29.3967
rtibia 9.25229
rfoot -0.64466 -12.7566
rtoes -22.4386
lfemur -28.8035 -3.41688 -14.9505
ltibia 30.9768
lfoot -4.66072 5.33595
ltoes -4.22041
1674
root 1.8674 18.0128 23.2949 5.6948 8.20926 -6.97858
lowerback 2.53829 2.36622 3.42435
upperback -0.82842 3.33499 2.59668
thorax -2.23454 1.63668 0.60537
lowerneck -21.2041 1.26479 5.06814
upperneck 23.0241 1.93768 -6.74552
head 11.0831 0.48009 -3.01279
rclavicle -2.27111e-014 -7.05686e-015
rhumerus -33.0626 -1.09022 -82.2979
rradius 37.2888
rwrist -8.84432
rhand -16.5736 -3.33937
rfingers 7.12502
rthumb 9.64677 -33.0985
lclavicle -2.27111e-014 -7.05686e-015
lhumerus -46.1455 9.31263 76.4583
lradius 38.8219
lwrist 12.4662
lhand -12.1713 -2.81828
lfingers 7.12502
lthumb 13.8919 26.6977
rfemur 16.5135 -3.10352 29.3125
rtibia 9.72872
rfoot -0.538711 -12.6973
rtoes -22.643
lfemur -28.7137 -3.44411 -15.0352
ltibia 31.0105
lfoot -4.82642 5.39675
ltoes -4.14985
1675
root 1.88312 18.0159 23.3405 5.75123 8.23725 -6.96284
lowerback 2.56924 2.50171 3.66731
upperback -0.801553 3.52135 2.47995
thorax -2.20009 1.72573 0.342833
lowerneck -21.3931 1.06398 4.84549
upperneck 23.0936 1.66907 -6.54076
head 11.122 0.361277 -2.94427
rclavicle 3.36195e-014 3.60794e-014
rhumerus -33.0799 -1.59111 -82.1575
rradius 37.3715
rwrist -8.81669
rhand -16.5685 -3.31127
rfingers 7.12502
rthumb 9.65171 -33.0702
lclavicle 3.36195e-014 3.60794e-014
lhumerus -45.8591 8.75546 76.7239
lradius 38.9205
lwrist 12.5232
lhand -12.1684 -2.80522
lfingers 7.12502
lthumb 13.8947 26.7106
rfemur 16.3356 -3.12826 29.2499
rtibia 10.1806
rfoot -0.408778 -12.6463
rtoes -22.8306
lfemur -28.618 -3.45336 -15.1011
ltibia 31.044
lfoot -5.00619 5.44815
ltoes -4.09492
1676
root 1.89827 18.0192 23.3871 5.80611 8.24015 -6.946
lowerback 2.58799 2.63527 3.88172
upperback -0.772853 3.70365 2.3706
thorax -2.15695 1.81355 0.104904
lowerneck -21.5506 0.875084 4.64287
upperneck 23.1293 1.41508 -6.35196
head 11.145 0.249639 -2.88189
rclavicle 1.42131e-014 -3.73715e-014
rhumerus -33.0917 -2.05979 -82.0291
rradius 37.4315
rwrist -8.77948
rhand -16.5843 -3.25008
rfingers 7.12502
rthumb 9.6364 -33.0097
lclavicle 1.42131e-014 -3.73715e-014
lhumerus -45.5945 8.2123 76.9777
lradius 39.0216
lwrist 12.5993
lhand -12.1746 -2.81255
lfingers 7.12502
lthumb 13.8888 26.7037
rfemur 16.173 -3.09486 29.2004
rtibia 10.6061
rfoot -0.247042 -12.6374
rtoes -22.9734
lfemur -28.5125 -3.43775 -15.1661
ltibia 31.0763
lfoot -5.20114 5.49849
ltoes -4.04693
1677
root 1.91321 18.0223 23.4344 5.85572 8.22934 -6.93876
lowerback 2.58246 2.68562 3.96333
upperback -0.756805 3.77146 2.33175
thorax -2.12784 1.84651 0.0181791
lowerneck -21.5776 0.792289 4.57005
upperneck 23.1165 1.3002 -6.27482
head 11.1366 0.200475 -2.85885
rclavicle -1.49958e-014 -1.40143e-014
rhumerus -33.0908 -2.24473 -81.9736
rradius 37.4558
rwrist -8.76277
rhand -16.6 -3.20789
rfingers 7.12502
rthumb 9.62133 -32.9682
lclavicle -1.49958e-014 -1.40143e-014
lhumerus -45.4684 7.9286 77.1343
lradius 39.1384
lwrist 12.6844
lhand -12.1801 -2.83473
lfingers 7.12502
lthumb 13.8835 26.6818
rfemur 16.0239 -3.05636 29.1608
rtibia 11.0147
rfoot -0.0607619 -12.6209
rtoes -23.0889
lfemur -28.3973 -3.40453 -15.2204
ltibia 31.1079
lfoot -5.4085 5.54586
ltoes -4.00421
1678
root 1.92837 18.0256 23.4815 5.90273 8.21124 -6.9219
lowerback 2.55634 2.61634 3.84787
upperback -0.757669 3.67507 2.3853
thorax -2.12729 1.80048 0.141853
lowerneck -21.4507 0.854141 4.65923
upperneck 23.0564 1.37826 -6.3452
head 11.0962 0.236666 -2.88517
rclavicle -1.09332e-015 -9.44227e-015
rhumerus -33.0706 -2.02912 -82.0164
rradius 37.4458
rwrist -8.75766
rhand -16.6089 -3.18812
rfingers 7.12502
rthumb 9.61268 -32.9488
lclavicle -1.09332e-015 -9.44227e-015
lhumerus -45.5336 8.00985 77.1668
lradius 39.2961
lwrist 12.7657
lhand -12.1887 -2.8248
lfingers 7.12502
lthumb 13.8751 26.6923
rfemur 15.8829 -3.02389 29.1061
rtibia 11.4135
rfoot 0.140741 -12.5935
rtoes -23.1715
lfemur -28.2716 -3.36274 -15.2867
ltibia 31.1343
lfoot -5.62155 5.58933
ltoes -3.96081
1679
root 1.9434 18.0287 23.5284 5.93981 8.17978 -6.91609
lowerback 2.52421 2.235 3.24039
upperback -0.795929 3.15391 2.68964
thorax -2.21051 1.55026 0.811626
lowerneck -21.0307 1.30908 5.21413
upperneck 22.8909 1.97549 -6.83623
head 11.0054 0.50152 -3.06062
rclavicle -1.76049e-014 -3.72721e-014
rhumerus -32.9788 -0.769846 -82.32
rradius 37.3703
rwrist -8.82287
rhand -16.6194 -3.198
rfingers 7.12502
rthumb 9.60257 -32.9592
lclavicle -1.76049e-014 -3.72721e-014
lhumerus -46.0598 9.05563 76.87
lradius 39.5463
lwrist 12.7988
lhand -12.1886 -2.84567
lfingers 7.12502
lthumb 13.8753 26.6715
rfemur 15.7486 -2.98478 29.0629
rtibia 11.8089
rfoot 0.36081 -12.5582
rtoes -23.2427
lfemur -28.1325 -3.31082 -15.3392
ltibia 31.1545
lfoot -5.8319 5.63322
ltoes -3.91893
1680
root 1.95991 18.0319 23.5757 5.97601 8.15954 -6.89443
lowerback 2.48314 1.90683 2.73333
upperback -0.820226 2.70447 2.93772
thorax -2.25126 1.33502 1.36842
lowerneck -20.6668 1.68832 5.67904
upperneck 22.7702 2.47623 -7.2424
head 10.9394 0.725706 -3.20701
rclavicle -1.08089e-014 9.93923e-015
rhumerus -32.903 0.279673 -82.5739
rradius 37.3081
rwrist -8.87969
rhand -16.6311 -3.21407
rfingers 7.12502
rthumb 9.59128 -32.9757
lclavicle -1.08089e-014 9.93923e-015
lhumerus -46.4907 9.94804 76.6077
lradius 39.745
lwrist 12.8197
lhand -12.182 -2.94359
lfingers 7.12502
lthumb 13.8816 26.5731
rfemur 15.6135 -2.99822 28.9798
rtibia 12.218
rfoot 0.573053 -12.479
rtoes -23.3088
lfemur -27.9798 -3.27012 -15.4164
ltibia 31.164
lfoot -6.04275 5.67199
ltoes -3.87451
1681
root 1.97687 18.0352 23.624 6.01964 8.14001 -6.83994
lowerback 2.40705 1.54694 2.14398
upperback -0.841304 2.20878 3.20256
thorax -2.26027 1.09848 1.99352
lowerneck -20.2404 2.1009 6.19478
upperneck 22.6146 3.02585 -7.70098
head 10.8596 0.972579 -3.37365
rclavicle -1.16786e-015 1.39149e-015
rhumerus -32.8298 1.43836 -82.8506
rradius 37.2389
rwrist -8.96131
rhand -16.6419 -3.24115
rfingers 7.12502
rthumb 9.58085 -33.0033
lclavicle -1.16786e-015 1.39149e-015
lhumerus -46.97 10.925 76.3114
lradius 39.9491
lwrist 12.8462
lhand -12.178 -3.04807
lfingers 7.12502
lthumb 13.8855 26.4684
rfemur 15.4737 -3.03681 28.8498
rtibia 12.6353
rfoot 0.786686 -12.3791
rtoes -23.3664
lfemur -27.8197 -3.23697 -15.5318
ltibia 31.1649
lfoot -6.24799 5.71003
ltoes -3.83513
1682
root 1.99392 18.0387 23.673 6.06601 8.11865 -6.76471
lowerback 2.3331 1.51065 2.07272
upperback -0.782853 2.15209 3.19091
thorax -2.15948 1.07148 2.02664
lowerneck -20.3204 2.13099 6.2221
upperneck 22.6346 3.05325 -7.69142
head 10.8849 0.986914 -3.37145
rclavicle -1.8313e-014 8.15017e-015
rhumerus -32.7315 1.49856 -82.8812
rradius 37.2081
rwrist -8.99736
rhand -16.6518 -3.24057
rfingers 7.12502
rthumb 9.57135 -33.0032
lclavicle -1.8313e-014 8.15017e-015
lhumerus -46.877 10.9575 76.3473
lradius 40.038
lwrist 12.8715
lhand -12.1899 -3.11316
lfingers 7.12502
lthumb 13.874 26.4041
rfemur 15.3232 -3.09358 28.6888
rtibia 13.0745
rfoot 0.992595 -12.2674
rtoes -23.4155
lfemur -27.6514 -3.20732 -15.6707
ltibia 31.1565
lfoot -6.44384 5.7472
ltoes -3.79799
1683
root 2.01115 18.0417 23.7226 6.10536 8.09722 -6.68589
lowerback 2.26432 1.59453 2.18682
upperback -0.722637 2.25966 3.08825
thorax -2.05247 1.12326 1.85549
lowerneck -20.4669 2.01063 6.06617
upperneck 22.6795 2.88291 -7.52115
head 10.91 0.913759 -3.30998
rclavicle 1.67476e-014 1.23246e-014
rhumerus -32.6972 1.14944 -82.8029
rradius 37.1995
rwrist -8.98128
rhand -16.6471 -3.22625
rfingers 7.12502
rthumb 9.5758 -32.9886
lclavicle 1.67476e-014 1.23246e-014
lhumerus -46.6281 10.6196 76.5134
lradius 40.0602
lwrist 12.9266
lhand -12.2243 -3.21715
lfingers 7.12502
lthumb 13.8408 26.3023
rfemur 15.1696 -3.16996 28.5149
rtibia 13.537
rfoot 1.19392 -12.1419
rtoes -23.4549
lfemur -27.47 -3.17909 -15.8154
ltibia 31.1421
lfoot -6.63241 5.78186
ltoes -3.76006
1684
root 2.0267 18.0449 23.7714 6.14227 8.05153 -6.624
lowerback 2.23303 1.99453 2.84677
upperback -0.56845 2.79626 2.70031
thorax -1.83458 1.38185 1.07206
lowerneck -21.2172 1.53542 5.49596
upperneck 22.9429 2.20921 -6.90036
head 11.0816 0.621073 -3.0986
rclavicle 4.2602e-014 3.81667e-014
rhumerus -32.5824 -0.284308 -82.5483
rradius 37.2091
rwrist -8.89536
rhand -16.6593 -3.17972
rfingers 7.12502
rthumb 9.56407 -32.9427
lclavicle 4.2602e-014 3.81667e-014
lhumerus -45.777 9.33701 76.9553
lradius 39.9731
lwrist 13.0144
lhand -12.2647 -3.23231
lfingers 7.12502
lthumb 13.8019 26.2898
rfemur 14.9939 -3.20204 28.375
rtibia 14.0238
rfoot 1.40809 -12.0512
rtoes -23.46
lfemur -27.2922 -3.1416 -15.9311
ltibia 31.1252
lfoot -6.80331 5.82816
ltoes -3.71278
1685
root 2.04218 18.0479 23.8206 6.17646 8.00609 -6.56829
lowerback 2.20984 2.34443 3.401
upperback -0.455007 3.26571 2.3748
thorax -1.65467 1.61047 0.418145
lowerneck -21.771 1.09898 4.98277
upperneck 23.155 1.6055 -6.36258
head 11.2123 0.361274 -2.91615
rclavicle -3.51103e-014 3.37934e-015
rhumerus -32.5398 -1.52825 -82.3084
rradius 37.2125
rwrist -8.84022
rhand -16.6681 -3.14327
rfingers 7.12502
rthumb 9.55563 -32.9066
lclavicle -3.51103e-014 3.37934e-015
lhumerus -45.0952 8.20228 77.3383
lradius 39.9082
lwrist 13.0808
lhand -12.3019 -3.26669
lfingers 7.12502
lthumb 13.766 26.2579
rfemur 14.8119 -3.24714 28.2373
rtibia 14.5224
rfoot 1.62463 -11.9521
rtoes -23.4485
lfemur -27.1124 -3.11074 -16.0386
ltibia 31.1098
lfoot -6.96905 5.88248
ltoes -3.65824
1686
root 2.05704 18.0507 23.8689 6.20089 7.95375 -6.52534
lowerback 2.23143 2.72737 3.99668
upperback -0.369184 3.78336 2.03697
thorax -1.50904 1.8638 -0.271496
lowerneck -22.2597 0.608528 4.41956
upperneck 23.3892 0.94056 -5.78867
head 11.3424 0.0774686 -2.72306
rclavicle 1.80646e-014 -1.3418e-014
rhumerus -32.571 -2.8576 -82.0361
rradius 37.2212
rwrist -8.77087
rhand -16.6821 -3.1271
rfingers 7.12502
rthumb 9.5421 -32.891
lclavicle 1.80646e-014 -1.3418e-014
lhumerus -44.4323 6.95138 77.7382
lradius 39.8191
lwrist 13.1586
lhand -12.3334 -3.29871
lfingers 7.12502
lthumb 13.7357 26.2279
rfemur 14.6288 -3.27495 28.1209
rtibia 15.0272
rfoot 1.85438 -11.8762
rtoes -23.433
lfemur -26.9277 -3.08091 -16.1286
ltibia 31.0963
lfoot -7.12854 5.94508
ltoes -3.60288
